<svg width="33" height="29" viewBox="0 0 33 29" fill="none" xmlns="http://www.w3.org/2000/svg">
<rect width="33" height="29" fill="white"/>
<path d="M7.49375 16.7475L8.11247 17.1714L8.11441 17.1686L7.49375 16.7475ZM5.9125 19.0554L5.29379 18.6315L5.29366 18.6317L5.9125 19.0554ZM7.3975 22.5958L7.18368 23.3147L7.18621 23.3155L7.3975 22.5958ZM25.6437 22.5958L25.4345 21.8756L25.4325 21.8762L25.6437 22.5958ZM27.1287 19.0554L27.7481 18.6325L27.7475 18.6315L27.1287 19.0554ZM25.5475 16.7475L24.9205 17.1591L24.9246 17.1653L24.9288 17.1714L25.5475 16.7475ZM19.0712 3.86668L18.8858 4.5934C19.1645 4.66449 19.4592 4.57 19.6446 4.35016C19.83 4.13032 19.8733 3.82385 19.7562 3.56121L19.0712 3.86668ZM17.7513 3.62501L17.6694 4.37053L17.6718 4.37079L17.7513 3.62501ZM13.9838 3.86668L13.2988 3.56121C13.1816 3.82389 13.225 4.13041 13.4105 4.35025C13.5959 4.57009 13.8907 4.66453 14.1694 4.59334L13.9838 3.86668ZM16.5275 2.76626C11.656 2.76626 7.5275 6.26435 7.5275 10.7663H9.0275C9.0275 7.26901 12.2965 4.26626 16.5275 4.26626V2.76626ZM7.5275 10.7663V14.2583H9.0275V10.7663H7.5275ZM7.5275 14.2583C7.5275 14.524 7.4594 14.9091 7.3303 15.3178C7.20173 15.7248 7.03307 16.0906 6.87309 16.3265L8.11441 17.1686C8.38068 16.7761 8.60389 16.2658 8.76064 15.7696C8.91686 15.2751 9.0275 14.7298 9.0275 14.2583H7.5275ZM6.87504 16.3236L5.29379 18.6315L6.53121 19.4793L8.11246 17.1714L6.87504 16.3236ZM5.29366 18.6317C4.67975 19.5283 4.54656 20.5482 4.92744 21.4522C5.3023 22.3418 6.12328 22.9993 7.18368 23.3147L7.61132 21.877C6.88422 21.6607 6.47458 21.2609 6.30975 20.8697C6.15095 20.4928 6.169 20.0083 6.53134 19.4791L5.29366 18.6317ZM7.18621 23.3155C13.2504 25.096 19.7908 25.096 25.855 23.3155L25.4325 21.8762C19.6442 23.5757 13.3971 23.5757 7.60879 21.8762L7.18621 23.3155ZM25.853 23.3161C27.9178 22.7162 28.9935 20.4566 27.7481 18.6325L26.5093 19.4783C27.079 20.3126 26.6972 21.5088 25.4345 21.8756L25.853 23.3161ZM27.7475 18.6315L26.1662 16.3236L24.9288 17.1714L26.51 19.4793L27.7475 18.6315ZM26.1745 16.3359C26.0178 16.0973 25.8511 15.7285 25.7238 15.3203C25.5957 14.9099 25.5275 14.5243 25.5275 14.2583H24.0275C24.0275 14.7295 24.1381 15.2743 24.2919 15.7671C24.4464 16.2622 24.6647 16.7694 24.9205 17.1591L26.1745 16.3359ZM25.5275 14.2583V10.7663H24.0275V14.2583H25.5275ZM25.5275 10.7663C25.5275 6.27643 21.3852 2.76626 16.5275 2.76626V4.26626C20.7448 4.26626 24.0275 7.28109 24.0275 10.7663H25.5275ZM19.2567 3.13996C18.801 3.02369 18.3253 2.93191 17.8307 2.87923L17.6718 4.37079C18.0847 4.41477 18.489 4.49216 18.8858 4.5934L19.2567 3.13996ZM17.8331 2.87949C16.4293 2.72529 15.0734 2.81423 13.7981 3.14001L14.1694 4.59334C15.2591 4.31495 16.4332 4.23473 17.6694 4.37053L17.8331 2.87949ZM14.6687 4.17214C14.9332 3.57912 15.6333 3.09418 16.5275 3.09418V1.59418C15.1117 1.59418 13.8318 2.3659 13.2988 3.56121L14.6687 4.17214ZM16.5275 3.09418C17.4217 3.09418 18.1218 3.57912 18.3863 4.17214L19.7562 3.56121C19.2232 2.3659 17.9433 1.59418 16.5275 1.59418V3.09418ZM19.9025 23.0308C19.9025 24.5223 18.476 25.9058 16.5275 25.9058V27.4058C19.1165 27.4058 21.4025 25.5269 21.4025 23.0308H19.9025ZM16.5275 25.9058C15.5778 25.9058 14.7099 25.5585 14.1076 25.0291L13.1174 26.1559C14.0001 26.9316 15.2222 27.4058 16.5275 27.4058V25.9058ZM14.1076 25.0291C13.5066 24.501 13.1525 23.78 13.1525 23.0308H11.6525C11.6525 24.2633 12.2334 25.379 13.1174 26.1559L14.1076 25.0291Z" fill="#1E1E1E"/>
</svg>
